<svg xmlns="http://www.w3.org/2000/svg" width="1232.344" height="262.781" viewBox="0 0 1232.344 262.781">
  <defs>
    <style>
      .cls-1 {
        fill: #fff;
        fill-rule: evenodd;
      }
    </style>
  </defs>
  <path id="Textrix" class="cls-1" d="M689.742,442.828a61.815,61.815,0,0,1-3.222-12.451,90.556,90.556,0,0,1-1.172-14.648,68.662,68.662,0,0,1,1.464-14.356A31.945,31.945,0,0,1,691.5,389.8l142.09-3.223q3.516,1.47,6.152,6.885a32.515,32.515,0,0,1,2.93,13.037,50.723,50.723,0,0,1-2.49,16.7,57.369,57.369,0,0,1-9.815,18.164H788.18q0,12.3.439,32.08t1.026,41.016q0.583,21.245,1.025,41.016t0.439,32.08a12.565,12.565,0,0,1-5.859,8.2,29.638,29.638,0,0,1-11.279,3.955,59.142,59.142,0,0,1-13.916.439,80.641,80.641,0,0,1-13.623-2.2A51.081,51.081,0,0,1,735.592,594q-4.546-2.341-5.127-4.98l4.687-147.657Zm31.641,12.012-4.1,135.351q1.167,4.395,5.86,8.5a52.271,52.271,0,0,0,11.572,7.47,71.475,71.475,0,0,0,14.8,5.274,67.249,67.249,0,0,0,15.82,1.9,55.176,55.176,0,0,0,24.756-5.42Q801.07,602.5,804,589.605q0-6.151-.146-14.794t-0.293-18.457q-0.152-9.813-.44-20.655t-0.586-21.387q-0.591-16.4-.732-31.933t-0.44-28.125H836.52q10.547-13.471,14.794-25.342t4.248-21.24q0-12.3-5.566-21.387t-14.062-12.6L684.469,376.91a61.059,61.059,0,0,0-9.522,19.483,74.2,74.2,0,0,0-2.783,19.775,90.332,90.332,0,0,0,2.344,19.189,155.505,155.505,0,0,0,6.152,20.948ZM923.8,498.053a16.17,16.17,0,0,0,8.2,1.172,21.852,21.852,0,0,0,8.35-2.491q3.8-2.046,4.394-4.687,0.879-4.395-2.93-6.3a17.859,17.859,0,0,0-8.642-1.758,22.275,22.275,0,0,0-9.082,2.2q-4.251,2.052-4.248,5.859A6.475,6.475,0,0,0,923.8,498.053Zm61.67,43.066a22.423,22.423,0,0,1,7.031,9.522,24.186,24.186,0,0,1,1.318,12.744q-1.029,6.887-7.177,12.451-12.9,12.3-25.928,18.018a68.975,68.975,0,0,1-25.195,6.152,58.309,58.309,0,0,1-23-3.662,71.912,71.912,0,0,1-19.629-11.133A70.183,70.183,0,0,1,877.945,568.8a71.28,71.28,0,0,1-9.082-19.629,89.048,89.048,0,0,1-2.051-12.891,131.093,131.093,0,0,1-.439-18.9,122.226,122.226,0,0,1,2.93-21.534,77.75,77.75,0,0,1,8.056-21.093,64.817,64.817,0,0,1,14.649-17.725q9.076-7.76,22.851-10.986,15.231-3.516,28.418-.586a55.846,55.846,0,0,1,22.7,10.4,50.089,50.089,0,0,1,14.649,18.457,51.529,51.529,0,0,1,4.834,23.291,29.884,29.884,0,0,1-4.248,14.5,40.765,40.765,0,0,1-10.254,11.426,57.333,57.333,0,0,1-14.209,7.91,67.357,67.357,0,0,1-15.967,4.1,69,69,0,0,1-15.527.293,31.837,31.837,0,0,1-13.037-3.955q1.167,10.259,6.445,15.82a20.514,20.514,0,0,0,13.623,6.3q8.349,0.735,19.336-3.223a103.056,103.056,0,0,0,23.584-12.744A13.816,13.816,0,0,1,985.465,541.119Zm8.2-68.262a61.552,61.552,0,0,0-13.623-21.24,67.1,67.1,0,0,0-21.533-14.5,69.741,69.741,0,0,0-27.832-5.42q-4.395,0-9.082.293a39.751,39.751,0,0,0-9.375,1.758q-18.169,4.107-29.444,14.209a79.774,79.774,0,0,0-17.871,22.852,90.387,90.387,0,0,0-8.935,26.66,157.876,157.876,0,0,0-2.344,26.221,126.888,126.888,0,0,0,1.025,17.138q1.023,7.471,1.9,11.572a77.477,77.477,0,0,0,10.4,22.852,87.186,87.186,0,0,0,17.285,19.189A84.284,84.284,0,0,0,906.8,607.77a70.657,70.657,0,0,0,26.513,4.98,79.1,79.1,0,0,0,30.469-6.445q15.525-6.441,31.348-21.387a37.507,37.507,0,0,0,8.937-12.451,34.26,34.26,0,0,0-3.37-33.106,32.755,32.755,0,0,0-15.235-12.451,49.174,49.174,0,0,0,8.935-13.037,39.757,39.757,0,0,0,3.662-15.674A65.819,65.819,0,0,0,993.668,472.857Zm137.522,80.127-30.47,48.047a29.112,29.112,0,0,1-13.04.586,39.637,39.637,0,0,1-12.89-4.541,37.817,37.817,0,0,1-10.55-8.789,27.8,27.8,0,0,1-6-12.158l37.79-48.633-40.43-53.027q-0.585-5.274,4.54-11.133a54.834,54.834,0,0,1,12.45-10.4,64.065,64.065,0,0,1,14.95-6.885q7.605-2.341,12.01-1.172l32.22,43.359,35.45-39.843c2.35-1.365,5.47-1.9,9.38-1.612a29.975,29.975,0,0,1,11.72,3.516,34.489,34.489,0,0,1,10.4,8.5,22.84,22.84,0,0,1,5.12,13.33l-40.13,45.7,47.46,48.633q3.8,5.568.44,12.012a36.337,36.337,0,0,1-9.82,11.572,57.33,57.33,0,0,1-13.91,8.2q-7.47,3.076-12.16,1.611Zm37.79,58.3q4.68,1.47,11.43-.439a71.029,71.029,0,0,0,13.91-5.713,73.4,73.4,0,0,0,13.63-9.375,60.285,60.285,0,0,0,10.69-11.865,33.51,33.51,0,0,0,5.42-12.745,16.486,16.486,0,0,0-2.64-12.3q-9.96-10.253-20.07-20.655-10.1-10.395-20.36-20.654l36.04-41.6a43.635,43.635,0,0,0-5.42-18.164,49.7,49.7,0,0,0-10.7-13.184,46.514,46.514,0,0,0-13.18-8.057,35.963,35.963,0,0,0-13.18-2.783,27.237,27.237,0,0,0-8.06,1.318,35.4,35.4,0,0,0-8.06,3.663q-5.865,7.031-12.59,14.5-6.75,7.47-13.19,14.794l-25.49-34.277q-4.1-1.167-10.69.293a72.118,72.118,0,0,0-13.77,4.688,112.449,112.449,0,0,0-14.5,7.91,86.9,86.9,0,0,0-13.04,10.107,46.557,46.557,0,0,0-8.93,11.279,18.708,18.708,0,0,0-2.64,11.133q8.49,11.426,17.87,23.731t18.75,24.316l-35.74,46a48.736,48.736,0,0,0,7.03,16.846,59.607,59.607,0,0,0,11.72,13.037,51.351,51.351,0,0,0,14.35,8.5,42.27,42.27,0,0,0,15.24,2.93q5.565,0,16.11-2.637,5.565-8.788,11.87-18.75,6.285-9.955,12.16-19.336Zm131.07-123.34-21.09.879q-2.64-1.167-4.69-5.859a33.819,33.819,0,0,1-2.49-11.279,61.66,61.66,0,0,1,.88-14.356,49.974,49.974,0,0,1,5.42-15.381l20.51-.586,0.59-38.965q1.755-2.046,7.47-4.248a55.343,55.343,0,0,1,27.68-2.783,24.555,24.555,0,0,1,12.89,5.86l0.59,40.136,23.73-.586q2.64,1.758,5.42,7.764a54.915,54.915,0,0,1,4.1,13.33,48.126,48.126,0,0,1,.44,14.5q-0.885,7.182-5.86,10.986l-27.83-.293L1348.1,598.4a66.727,66.727,0,0,1-14.5,3.515,88.577,88.577,0,0,1-15.82.879,38,38,0,0,1-12.6-2.344q-5.13-2.046-5.13-6.152V487.945Zm-12.89,106.348a17.285,17.285,0,0,0,2.64,9.814,19.7,19.7,0,0,0,7.32,6.446,38.352,38.352,0,0,0,10.84,3.662,69.167,69.167,0,0,0,12.9,1.172,102.057,102.057,0,0,0,18.89-2.051,113.847,113.847,0,0,0,20.95-6.152q0-24.9-.15-53.174t-0.14-54.346l19.33,0.293q8.49-6.736,11.57-14.062a38.792,38.792,0,0,0,3.08-15.235,51.169,51.169,0,0,0-1.76-12.89,64.629,64.629,0,0,0-4.68-12.6,78.729,78.729,0,0,0-6.3-10.547,28.744,28.744,0,0,0-6.3-6.738q-2.64,0-7.18.146c-3.03.1-5.71,0.247-8.06,0.44l-0.58-33.106a47.819,47.819,0,0,0-16.7-10.547,49.6,49.6,0,0,0-16.12-2.929,53.632,53.632,0,0,0-12.15,1.464,68.693,68.693,0,0,0-11.72,3.809,71.219,71.219,0,0,0-9.82,5.127,29.97,29.97,0,0,0-6.44,5.127q0,6.743-.15,15.234t-0.44,16.407l-15.53.293a113.657,113.657,0,0,0-8.93,21.533,63.884,63.884,0,0,0-2.78,17.138,41.778,41.778,0,0,0,5.12,20.655q5.13,9.228,12.75,12.744h5.12a48.49,48.49,0,0,0,5.42-.293v93.164ZM1440.8,458.355a18.55,18.55,0,0,1,9.23-10.693,38.244,38.244,0,0,1,13.33-4.1,32.886,32.886,0,0,1,12.15.732c3.62,0.98,5.52,2.344,5.72,4.1l0.88,18.164q7.905-10.548,16.55-14.5a32.238,32.238,0,0,1,16.99-3.077,34.786,34.786,0,0,1,15.82,5.86,53.568,53.568,0,0,1,13.18,12.6,67.054,67.054,0,0,1,9.23,17.138,60.356,60.356,0,0,1,3.81,19.19q-1.755,7.621-6.59,11.718a24.986,24.986,0,0,1-21.53,5.567,16.252,16.252,0,0,1-8.21-4.1q-1.755-9.667-6.59-13.476a11.508,11.508,0,0,0-10.25-2.491q-5.43,1.318-10.11,7.032-4.7,5.712-6.45,14.795V591.07q-1.755,3.811-8.64,6.446a55.37,55.37,0,0,1-14.79,3.369,38.8,38.8,0,0,1-14.8-1.319q-6.885-2.046-8.35-7.617Zm-12.01,135.352q2.925,10.547,11.71,15.234a41.022,41.022,0,0,0,19.63,4.688,50.251,50.251,0,0,0,12.45-1.611,65.544,65.544,0,0,0,11.87-4.248,50.434,50.434,0,0,0,9.96-6.153,20,20,0,0,0,6.15-7.617V523.4a19.967,19.967,0,0,1,3.08-7.471q1.9-2.485,3.66-2.49,0.585,0,2.34,9.375a36.981,36.981,0,0,0,11.87,8.5,32.489,32.489,0,0,0,13.33,2.929q10.83,0,21.24-6.591t14.21-22.413a79.688,79.688,0,0,0-5.42-25.341,80.626,80.626,0,0,0-12.75-22.119,67.278,67.278,0,0,0-18.16-15.674,41.363,41.363,0,0,0-42.19-.44,34.308,34.308,0,0,0-11.28-6.738,41,41,0,0,0-14.79-2.637,49.7,49.7,0,0,0-21.97,5.274q-10.845,5.272-15.53,18.75ZM1633.25,409.43a21.909,21.909,0,0,1-9.08-8.789,18.707,18.707,0,0,1-2.05-11.28,24.754,24.754,0,0,1,4.39-11.279,29.425,29.425,0,0,1,10.4-8.936,35.71,35.71,0,0,1,16.11-3.955A16.506,16.506,0,0,1,1663.28,369a20.725,20.725,0,0,1,6,8.643,27.692,27.692,0,0,1,1.61,11.132,29.415,29.415,0,0,1-2.78,11.28,24.414,24.414,0,0,1-7.18,8.935,21.007,21.007,0,0,1-11.42,4.248Q1639.55,412.95,1633.25,409.43Zm-13.04,42.48a34.413,34.413,0,0,1,12.31-6.006,52.171,52.171,0,0,1,15.52-2.05,40.017,40.017,0,0,1,14.65,2.929,17.8,17.8,0,0,1,9.67,8.936l0.88,130.078a15.875,15.875,0,0,1-9.38,9.375,39.52,39.52,0,0,1-15.38,2.93,49.743,49.743,0,0,1-16.11-2.637q-7.77-2.637-11.28-7.324Zm-11.72,140.332a43.123,43.123,0,0,0,17.73,13.477,55.875,55.875,0,0,0,22.12,4.687,51.2,51.2,0,0,0,22.41-5.127q10.7-5.122,15.09-17.138L1684.96,452.5a33.989,33.989,0,0,0-16.12-16.113,50.267,50.267,0,0,0-21.68-4.981,59.872,59.872,0,0,0-20.5,3.955,64.921,64.921,0,0,0-19.34,10.987Zm41.9-166.406a33.323,33.323,0,0,0,14.35-4.1,32.833,32.833,0,0,0,10.26-9.082,43.536,43.536,0,0,0,6.29-12.158,41.752,41.752,0,0,0,2.2-13.33,42.366,42.366,0,0,0-1.9-12.6,33.834,33.834,0,0,0-5.71-10.986,28.29,28.29,0,0,0-9.67-7.764,32.71,32.71,0,0,0-13.48-3.222,51.638,51.638,0,0,0-18.6,4.248,45.289,45.289,0,0,0-13.48,9.082,38.61,38.61,0,0,0-8.35,12.305,34.658,34.658,0,0,0-2.93,13.623,32.192,32.192,0,0,0,2.49,12.451A31.558,31.558,0,0,0,1619.19,415a36.489,36.489,0,0,0,12.3,7.617,52.532,52.532,0,0,0,17.72,3.223h1.18Zm160.95,127.148-30.46,48.047a29.126,29.126,0,0,1-13.04.586,39.637,39.637,0,0,1-12.89-4.541,37.676,37.676,0,0,1-10.55-8.789,27.923,27.923,0,0,1-6.01-12.158l37.8-48.633-40.43-53.027q-0.6-5.274,4.54-11.133a54.618,54.618,0,0,1,12.45-10.4,64.187,64.187,0,0,1,14.94-6.885q7.62-2.341,12.01-1.172l32.23,43.359,35.45-39.843q3.51-2.048,9.37-1.612a29.926,29.926,0,0,1,11.72,3.516,34.368,34.368,0,0,1,10.4,8.5,22.783,22.783,0,0,1,5.13,13.33l-40.14,45.7,47.46,48.633q3.81,5.568.44,12.012a36.3,36.3,0,0,1-9.81,11.572,57.39,57.39,0,0,1-13.92,8.2q-7.47,3.076-12.15,1.611Zm37.8,58.3q4.68,1.47,11.42-.439a71.1,71.1,0,0,0,13.92-5.713,73.664,73.664,0,0,0,13.62-9.375,59.972,59.972,0,0,0,10.69-11.865,33.51,33.51,0,0,0,5.42-12.745,16.525,16.525,0,0,0-2.63-12.3q-9.96-10.253-20.07-20.655t-20.36-20.654l36.03-41.6a43.344,43.344,0,0,0-5.42-18.164,49.861,49.861,0,0,0-10.69-13.184,46.653,46.653,0,0,0-13.18-8.057,36.012,36.012,0,0,0-13.19-2.783,27.174,27.174,0,0,0-8.05,1.318,35.209,35.209,0,0,0-8.06,3.663q-5.865,7.031-12.6,14.5t-13.18,14.794l-25.49-34.277q-4.11-1.167-10.69.293a71.885,71.885,0,0,0-13.77,4.688,112.449,112.449,0,0,0-14.5,7.91,86.9,86.9,0,0,0-13.04,10.107,46.855,46.855,0,0,0-8.94,11.279,18.622,18.622,0,0,0-2.63,11.133q8.49,11.426,17.87,23.731t18.75,24.316l-35.75,46a48.752,48.752,0,0,0,7.04,16.846,59.607,59.607,0,0,0,11.72,13.037,51.351,51.351,0,0,0,14.35,8.5,42.218,42.218,0,0,0,15.23,2.93q5.565,0,16.12-2.637,5.565-8.788,11.86-18.75t12.16-19.336Z" transform="translate(-672.156 -352.594)"/>
</svg>
