<svg xmlns="http://www.w3.org/2000/svg" width="380" height="380" viewBox="0 0 380 380">
  <defs>
    <style>
      .cls-1 {
        stroke: #000;
        stroke-width: 1px;
      }

      .cls-2 {
        fill: #fff;
        fill-rule: evenodd;
      }
    </style>
  </defs>
  <circle class="cls-1" cx="189.531" cy="189.594" r="190"/>
  <path id="T" class="cls-2" d="M157.309,131.211l-5.274,165.527q0.879,2.932,5.86,5.567a53.445,53.445,0,0,0,12.011,4.394,98.812,98.812,0,0,0,15.235,2.49,63.034,63.034,0,0,0,15.527-.439,35.664,35.664,0,0,0,12.744-4.395A13.243,13.243,0,0,0,220,295.273q0-9.077-.293-22.265t-0.586-28.418q-0.3-15.23-.732-31.348T217.66,181.9q-0.3-15.231-.586-28.418t-0.293-22.266h47.168A60.7,60.7,0,0,0,274.936,111a59.187,59.187,0,0,0,2.783-18.9A35.044,35.044,0,0,0,274.5,77.6q-2.933-5.857-6.738-7.617L108.383,73.5a38.788,38.788,0,0,0-5.274,12.891,70.88,70.88,0,0,0-1.757,15.967,101.409,101.409,0,0,0,1.318,16.406,73,73,0,0,0,3.662,14.209Z"/>
</svg>
